<svg width="193" height="110" viewBox="0 0 193 110" fill="none" xmlns="http://www.w3.org/2000/svg">
<g clip-path="url(#clip0_8_1131)">
<path d="M38.519 73.4533C38.519 74.0777 36.7885 74.5886 33.3276 74.986C29.8667 75.3266 26.3775 75.4969 22.8598 75.4969C19.3989 75.4969 17.1862 75.3549 16.2217 75.0711C15.2572 74.7305 14.7749 74.1913 14.7749 73.4533V20.4918C14.7749 19.243 16.4203 18.0225 19.711 16.8305C23.0017 15.5817 26.6895 14.9572 30.7745 14.9572C34.4056 14.9572 36.7885 15.7236 37.9233 17.2562C38.3204 17.8239 38.519 18.3915 38.519 18.9592V73.4533Z" fill="white"/>
<path d="M87.9965 74.9008C85.727 75.4117 83.4008 75.7523 81.0179 75.9226C78.6917 76.1497 76.3939 76.2632 74.1245 76.2632C71.9117 76.2632 70.1813 76.2064 68.9331 76.0929C67.7416 75.9794 66.153 75.6955 64.1673 75.2414C62.1815 74.7873 60.366 74.1629 58.7206 73.3682C57.0753 72.5735 55.3164 71.4098 53.4441 69.8772C51.6286 68.3445 50.0967 66.528 48.8485 64.4277C45.955 59.546 44.5082 53.2451 44.5082 45.5251C44.5082 40.3595 45.3025 35.7899 46.8911 31.8164C48.5365 27.8428 50.4939 24.7775 52.7633 22.6205C55.0895 20.4634 57.7277 18.7321 60.678 17.4265C65.4438 15.2694 70.238 14.1909 75.0606 14.1909C81.9824 14.1909 86.9468 14.7586 89.9538 15.8939C91.3155 16.4047 92.5353 17.1994 93.6133 18.278C94.6913 19.3565 95.2303 20.9175 95.2303 22.9611C95.2303 25.0046 94.7197 27.5874 93.6984 30.7095C92.7339 33.8315 91.3155 35.3926 89.4432 35.3926C88.8759 35.3926 86.7766 34.9384 83.1455 34.0302C79.5144 33.122 77.0464 32.6678 75.7414 32.6678C73.7557 32.6678 72.0536 33.7748 70.6352 35.9886C69.2735 38.2024 68.5927 41.3529 68.5927 45.4399C68.5927 49.527 69.1884 52.7058 70.3799 54.9764C71.6281 57.247 73.2451 58.3823 75.2308 58.3823C76.6492 58.3823 79.2024 57.8146 82.8902 56.6793C86.6348 55.4873 88.8191 54.8913 89.4432 54.8913C91.202 54.8913 92.5637 56.509 93.5282 59.7446C94.5495 62.9802 95.0601 65.5914 95.0601 67.5782C95.0601 69.5649 94.436 71.1544 93.1878 72.3464C91.9964 73.4817 90.2659 74.3332 87.9965 74.9008Z" fill="white"/>
<path d="M144.357 75.4969H108.273C105.492 75.4969 103.62 75.2982 102.656 74.9008C101.691 74.5035 101.209 73.8791 101.209 73.0276V19.1294C101.209 17.6536 101.861 16.6034 103.166 15.979C104.528 15.3546 106.939 15.0424 110.4 15.0424H144.612C145.803 15.0424 146.399 17.0292 146.399 21.0027C146.399 24.9195 146.144 27.928 145.633 30.0283C145.123 32.0718 144.442 33.0936 143.591 33.0936C139.903 33.0936 133.69 32.7246 124.953 31.9867V37.6915C133.35 37.3509 138.825 37.1806 141.378 37.1806C142.91 37.1806 143.676 38.9687 143.676 42.5449C143.676 46.1211 143.364 48.8458 142.74 50.719C142.172 52.5355 141.378 53.4438 140.357 53.4438L124.953 53.1032V58.5526C134.825 57.8146 141.633 57.4457 145.378 57.4457C146.569 57.4457 147.165 59.4324 147.165 63.406C147.165 67.3795 146.91 70.388 146.399 72.4316C145.889 74.4751 145.208 75.4969 144.357 75.4969Z" fill="white"/>
<path fill-rule="evenodd" clip-rule="evenodd" d="M34.9446 89.0849C34.8685 89.0937 34.7923 89.1018 34.716 89.1093C30.7884 89.4958 26.8357 89.6883 22.8598 89.6883C20.9738 89.6883 19.2235 89.6507 17.6972 89.5528C16.487 89.4752 14.3307 89.3072 12.2194 88.6859C11.9779 88.6149 11.7383 88.5374 11.5009 88.4536C9.64822 87.7993 6.9195 86.5058 4.56603 83.8741C1.9476 80.9462 0.59082 77.2379 0.59082 73.4536V20.4921C0.59082 13.1145 5.4425 8.81191 7.56145 7.24018C9.96325 5.45863 12.6376 4.3058 14.7833 3.52315C19.8867 1.6025 25.2793 0.766325 30.7745 0.766325C34.9252 0.766325 43.1234 1.37777 48.6068 7.90422C50.5924 6.59312 52.688 5.44888 54.8845 4.47321C61.3141 1.57126 68.0749 0 75.0606 0C82.173 0 89.3626 0.50686 94.9467 2.61121C95.5438 2.83563 96.1274 3.08181 96.697 3.34868C96.8135 3.28986 96.93 3.23262 97.0464 3.17693C97.1161 3.14357 97.1861 3.11078 97.2564 3.07856C101.688 1.04648 106.895 0.851471 110.4 0.851471H144.612C149.442 0.851471 153.386 3.08577 155.937 5.92177C158.122 8.3514 159.086 10.9479 159.538 12.4549C160.446 15.4823 160.583 18.6538 160.583 21.003C160.583 25.2953 160.326 29.6362 159.415 33.3827C159.408 33.4119 159.401 33.4412 159.394 33.4704C159.083 34.7128 158.56 36.5038 157.601 38.3853C157.816 39.9691 157.86 41.4071 157.86 42.5452C157.86 44.704 157.771 46.9925 157.488 49.2693C159.128 51.4053 159.91 53.5452 160.304 54.8582C161.212 57.8855 161.349 61.0571 161.349 63.4062C161.349 67.7093 161.099 72.1131 160.16 75.8737C159.75 77.5125 158.971 80.1059 157.307 82.6027C155.588 85.1836 151.407 89.6883 144.357 89.6883H108.272C106.594 89.6883 104.893 89.6306 103.287 89.4602C101.903 89.3133 99.6076 88.9926 97.255 88.0234C96.7601 87.8195 96.2298 87.5752 95.6795 87.2827C94.2309 87.881 92.7956 88.3287 91.4365 88.6686C91.328 88.6957 91.2191 88.7216 91.11 88.7462C88.1904 89.4034 85.2232 89.8405 82.2156 90.0643C79.5056 90.3233 76.808 90.4547 74.1244 90.4547C71.7536 90.4547 69.528 90.397 67.6489 90.2261L67.5883 90.2204C65.5088 90.0223 63.2384 89.5865 61.0067 89.0761C58.0995 88.4113 55.261 87.4558 52.554 86.1484C51.1184 85.4549 49.7346 84.6536 48.4041 83.7767C47.4059 84.7761 46.4859 85.431 45.9724 85.7679C44.0405 87.0354 42.1677 87.6408 41.2354 87.9161C39.1658 88.5271 36.8862 88.862 34.9446 89.0849ZM38.1188 73.9474C37.4247 74.3529 35.8276 74.6992 33.3276 74.9863C29.8667 75.3268 26.3774 75.4971 22.8598 75.4971C19.3989 75.4971 17.1861 75.3552 16.2216 75.0714C15.2571 74.7308 14.7749 74.1916 14.7749 73.4536V20.4921C14.7749 19.2433 16.4202 18.0228 19.7109 16.8308C23.0016 15.5819 26.6894 14.9575 30.7745 14.9575C34.4056 14.9575 36.7885 15.7238 37.9232 17.2565C38.0753 17.4739 38.1983 17.6913 38.2922 17.9088C38.4433 18.259 38.5189 18.6092 38.5189 18.9594V73.4536C38.5189 73.627 38.3855 73.7916 38.1188 73.9474ZM52.703 69.2214C52.9445 69.4456 53.1916 69.6642 53.4441 69.8774C55.3164 71.4101 57.0752 72.5738 58.7206 73.3685C60.3659 74.1632 62.1814 74.7876 64.1672 75.2417C66.153 75.6958 67.7416 75.9796 68.9331 76.0932C70.1813 76.2067 71.9117 76.2635 74.1244 76.2635C76.3939 76.2635 78.6917 76.1499 81.0179 75.9229C83.1072 75.7736 85.153 75.4933 87.1551 75.0822C87.4364 75.0244 87.7168 74.9641 87.9964 74.9011C89.7867 74.4533 91.2415 73.8289 92.361 73.0279C92.6606 72.8135 92.9362 72.5864 93.1878 72.3467C94.436 71.1546 95.0601 69.5652 95.0601 67.5785C95.0601 65.5917 94.5494 62.9805 93.5282 59.7449C92.5637 56.5093 91.202 54.8915 89.4432 54.8915C89.1024 54.8915 88.2962 55.0693 87.0248 55.4248C85.968 55.7203 84.5898 56.1385 82.8902 56.6796C79.2023 57.8149 76.6492 58.3826 75.2308 58.3826C73.245 58.3826 71.628 57.2473 70.3798 54.9767C69.1884 52.7061 68.5926 49.5273 68.5926 45.4402C68.5926 41.3531 69.2735 38.2027 70.6351 35.9889C72.0535 33.775 73.7556 32.6681 75.7414 32.6681C77.0463 32.6681 79.5143 33.1222 83.1455 34.0305C84.7304 34.4269 86.0236 34.7368 87.0248 34.9602C88.3173 35.2486 89.1235 35.3928 89.4432 35.3928C91.3155 35.3928 92.7339 33.8318 93.6984 30.7097C94.7196 27.5877 95.2303 25.0049 95.2303 22.9613C95.2303 21.4039 94.9172 20.1267 94.291 19.1297C94.0956 18.8186 93.8697 18.5348 93.6133 18.2783C92.5353 17.1997 91.3155 16.405 89.9538 15.8941C89.2319 15.6216 88.3972 15.3818 87.4497 15.1746C84.4504 14.519 80.3207 14.1912 75.0606 14.1912C70.238 14.1912 65.4438 15.2697 60.6779 17.4268C57.7277 18.7324 55.0894 20.4637 52.7633 22.6208C52.7431 22.6399 52.723 22.6591 52.703 22.6783C50.4591 24.8322 48.5218 27.8783 46.8911 31.8167C45.3025 35.7902 44.5082 40.3597 44.5082 45.5253C44.5082 53.2454 45.9549 59.5462 48.8485 64.428C49.923 66.2362 51.2079 67.834 52.703 69.2214ZM101.209 73.0279C101.209 73.8793 101.691 74.5038 102.656 74.9011C103.562 75.2743 105.268 75.4723 107.776 75.4949C107.938 75.4964 108.104 75.4971 108.272 75.4971H144.357C145.208 75.4971 145.889 74.4754 146.399 72.4318C146.787 70.8816 147.027 68.776 147.12 66.1151C147.15 65.2684 147.165 64.3654 147.165 63.4062C147.165 59.4327 146.569 57.4459 145.378 57.4459C144.075 57.4459 142.401 57.4906 140.357 57.5799C140.326 57.5813 140.296 57.5826 140.265 57.584C139.901 57.6 139.525 57.6175 139.137 57.6364C135.458 57.8155 130.73 58.121 124.953 58.5529V53.1041L140.357 53.444C141.378 53.444 142.172 52.5358 142.74 50.7193C143.051 49.7859 143.284 48.6411 143.44 47.2849C143.503 46.74 143.553 46.161 143.591 45.5478C143.635 44.8355 143.661 44.0771 143.671 43.2727C143.674 43.0342 143.676 42.7917 143.676 42.5452C143.676 41.8569 143.647 41.2349 143.591 40.6791C143.353 38.347 142.615 37.1809 141.378 37.1809C140.787 37.1809 140.04 37.19 139.137 37.2083C136.135 37.2688 131.407 37.43 124.953 37.6918V31.9869C130.819 32.4824 135.547 32.8115 139.137 32.9743C139.941 33.0108 140.688 33.0389 141.378 33.0587C142.196 33.0821 142.933 33.0939 143.591 33.0939C144.442 33.0939 145.123 32.0721 145.633 30.0286C146.016 28.4563 146.255 26.375 146.351 23.7848C146.383 22.915 146.399 21.9877 146.399 21.003C146.399 17.0294 145.803 15.0427 144.612 15.0427H110.4C109.552 15.0427 108.767 15.0614 108.044 15.0989C105.82 15.2145 104.194 15.5079 103.166 15.9793C101.861 16.6037 101.209 17.6538 101.209 19.1297V73.0279Z" fill="url(#paint0_linear_8_1131)"/>
<path d="M68.6179 62.0243C71.3052 61.2071 74.1959 60.356 76.9887 61.1996C78.9534 61.531 80.6735 62.6494 82.0021 64.103C84.761 66.739 86.4811 70.6328 85.8789 74.4776C85.5778 75.6977 86.1499 77.1249 87.3543 77.5957C88.4534 77.7425 89.654 77.8668 90.6891 77.3697C92.2662 76.6354 93.9637 76.1534 95.6913 75.9538C97.1893 75.8559 98.6497 76.3341 100.054 76.8011C101.988 75.1178 105.18 75.3249 106.847 77.2944C108.104 78.4467 108.311 80.2016 108.801 81.738C109.057 82.7359 110.351 82.9355 111.119 82.4573C112.237 81.2259 112.407 79.4898 113.257 78.1078C114.635 75.7392 117.047 73.8864 119.78 73.4458C121.481 73.0805 123.431 73.5851 124.654 74.8504C125.576 76.127 125.945 77.8668 125.501 79.3957C125.313 80.5706 124.665 81.6024 124.383 82.7472C124.315 84.6791 124.338 86.6448 124.718 88.5465C126.566 84.8146 128.493 81.0941 130.955 77.7237C132.306 76.0818 131.896 73.7207 133.085 71.9922C134.214 70.0152 136.54 68.7838 138.806 69.0399C142.19 69.4315 144.787 72.5722 145.107 75.8747C146.277 74.8165 148.028 74.44 149.522 74.9822C150.719 75.3099 151.517 76.3341 152.247 77.2718C154.716 75.5961 157.964 74.3383 160.889 75.5697C163.565 76.6881 165.116 79.535 165.428 82.3217C167.731 78.8685 171.228 75.9312 175.402 75.1856C178.338 74.4023 181.759 75.1743 183.811 77.4978C185.03 78.9099 186.449 80.1677 187.469 81.7493C188.346 83.1276 188.331 84.8297 188.805 86.3473C189.615 87.4055 190.431 88.682 190.051 90.0791C189.904 91.5704 188.779 92.6323 187.646 93.4721C185.93 98.8195 182.659 103.93 177.773 106.878C173.599 109.397 167.841 108.795 164.355 105.353C161.792 107.5 158.521 108.776 155.183 108.919C152.424 108.795 149.424 108.038 147.655 105.748C146.341 104.287 146.059 102.291 145.694 100.439C144.655 102.762 143.631 105.093 142.619 107.428C142.152 108.573 140.978 109.367 139.736 109.326C138.351 109.431 137.199 108.513 135.885 108.275C133.774 108.501 131.749 109.484 129.585 109.277C127.658 109.062 125.667 108.625 124.142 107.349C118.666 110.275 111.338 110.719 106.174 106.905C103.716 108.787 100.716 110.008 97.5958 110C95.4203 109.804 93.1808 109.236 91.5134 107.744C88.9013 109.281 85.7585 110.497 82.7097 109.676C79.5368 109.179 76.9811 106.569 76.0552 103.564C72.536 107.842 66.9241 110.094 61.4402 109.857C58.5947 109.559 55.6664 108.844 53.4006 106.999C48.9856 103.538 47.1526 97.6521 47.3972 92.1993C47.8075 86.5845 49.6518 81.0715 52.772 76.3793C54.7518 73.4006 56.965 70.5424 59.5808 68.0909C62.336 65.7411 65.1664 63.282 68.6179 62.0243Z" fill="url(#paint1_linear_8_1131)"/>
<path d="M72.5623 64.9919C74.7228 64.461 77.237 64.4836 79.07 65.9033C80.7337 67.2928 82.1865 69.0514 82.8377 71.1489C83.4436 73.1034 82.9619 75.2084 82.0849 77.0009C81.2004 78.8424 80.4815 80.7591 79.819 82.691C79.6007 83.4253 78.7614 83.9374 78.0162 83.655C76.1681 82.9885 75.0766 80.9474 75.1745 79.0382C75.3062 75.9729 77.1618 73.3481 77.6586 70.3657C77.7452 69.7594 77.7489 68.9497 77.1053 68.641C76.059 68.3661 75.0088 68.9046 74.0754 69.3263C71.102 70.8665 68.5463 73.1034 66.2541 75.5172C62.4677 79.5428 59.5055 84.4646 58.4065 89.925C57.729 93.2803 57.3978 96.9331 58.7565 100.164C59.4566 101.829 61.0412 103.403 62.9796 103.192C65.8137 102.857 68.0194 100.759 69.8222 98.7067C71.595 96.6356 72.9989 94.2857 74.2561 91.8756C74.5911 90.9756 75.9272 90.5991 76.5558 91.4125C77.4779 92.6476 77.5156 94.3422 77.1693 95.792C76.5332 98.2322 74.9712 100.318 73.2022 102.062C69.8298 105.478 64.5943 106.897 59.9534 105.696C57.5445 105.086 55.4556 103.482 54.1345 101.392C51.831 97.9159 51.4734 93.5175 52.1698 89.4957C53.3742 82.4763 57.3827 76.2064 62.4112 71.2883C65.3169 68.5581 68.5764 65.8694 72.5623 64.9919Z" fill="white"/>
<path d="M137.169 72.6477C140.477 72.3766 142.585 77.4453 139.962 79.5729C138.291 80.6688 136.032 79.4976 135.223 77.8558C134.158 76.0331 135.042 73.1937 137.169 72.6477Z" fill="white"/>
<path d="M115.771 80.3073C116.671 78.6353 118.271 77.1817 120.198 76.888C120.932 76.7449 121.937 77.0085 122.019 77.8859C122.219 79.6671 120.548 80.9776 120.683 82.7437C120.54 86.9162 121.357 91.0359 121.564 95.1933C121.673 97.2494 121.376 99.3168 120.653 101.245C122.324 99.8139 124.353 98.3565 124.808 96.0594C126.306 91.597 128.553 87.4208 130.868 83.3349C131.704 82.047 132.332 80.5445 133.544 79.5579C134.267 79.0081 135.088 79.6859 135.505 80.2809C136.717 81.9454 136.589 84.2236 135.919 86.0764C134.929 88.607 133.574 90.9719 132.34 93.3895C131.124 95.7468 129.739 98.1381 129.528 100.842C129.509 101.505 129.449 102.303 129.98 102.8C130.921 103.124 131.884 102.552 132.637 102.028C134.418 100.623 135.953 98.782 136.548 96.5527C139.047 90.6367 142.231 85.0333 145.592 79.5729C146.018 78.9102 146.631 77.9235 147.568 78.2813C149.112 79.4072 149.285 81.5575 149.24 83.3199C151.374 81.3165 153.719 79.234 156.651 78.5901C158.747 78.1721 160.381 80.1717 160.787 82.0244C161.291 83.8282 160.328 85.5567 159.553 87.1233C157.546 91.1564 154.735 94.8996 153.85 99.3996C153.715 100.424 153.681 101.934 154.833 102.386C155.92 102.457 156.835 101.727 157.61 101.049C159.602 99.185 161.058 96.8389 162.394 94.4853C163.068 93.3443 163.117 91.9811 163.565 90.7572C164.781 87.2136 166.726 83.8433 169.519 81.3089C171.623 79.4148 174.465 78.0553 177.352 78.4733C179.509 78.8047 180.551 80.9286 182.057 82.2504C183.829 83.8395 183.875 86.3927 183.724 88.5881C184.247 88.7162 184.767 88.8555 185.286 89.0061V89.2697C185.045 90.1886 184.138 90.5539 183.348 90.8777C182.237 95.0313 180.137 99.0042 176.96 101.942C175.056 103.685 172.512 105.033 169.854 104.642C167.065 104.333 164.735 102.326 163.512 99.8666C161.487 102.348 158.74 104.412 155.544 105.018C153.316 105.342 150.613 105.029 149.168 103.101C147.791 101.185 148.046 98.6239 148.671 96.4774C149.906 92.3313 151.991 88.4978 154.246 84.8262C154.731 84.0504 155.138 83.2219 155.409 82.3445C152.766 83.4968 150.692 85.5793 148.743 87.6467C144.354 92.3501 141.987 98.4507 139.371 104.224C139.13 104.796 138.659 105.451 137.948 105.285C137.007 105.007 136.503 104.099 135.953 103.365C133.458 105.082 130.206 106.144 127.229 105.116C125.941 104.698 125.012 103.621 124.481 102.405C121.139 105.327 116.43 106.472 112.098 105.621C109.674 105.184 107.532 103.704 106.159 101.678C103.859 104.483 100.302 106.807 96.5306 106.099C94.5395 105.809 92.9624 104.25 92.4468 102.341C90.8396 103.862 89.0217 105.244 86.8876 105.914C84.7309 106.585 82.0962 106.042 80.681 104.193C79.1378 102.194 79.0625 99.4636 79.5405 97.0799C80.3874 92.738 83.0748 89.0589 85.9014 85.7751C88.3818 83.0563 91.3252 80.4052 95.0137 79.5767C97.1667 79.0533 99.6207 80.0173 100.479 82.1449C101.074 81.1734 101.495 80.0135 102.429 79.3093C103.257 78.7746 104.228 79.4524 104.615 80.2093C105.839 82.3935 105.391 85.1011 104.337 87.2588C102.346 91.2769 99.6094 94.9297 98.1227 99.1925C97.7312 100.428 97.3699 101.783 97.7199 103.071C98.006 103.93 99.0749 103.606 99.6546 103.275C101.672 102.073 102.986 100.029 104.243 98.1004C104.98 97.0762 104.559 95.7318 104.965 94.5908C105.398 93.1522 106.317 91.6346 107.818 91.1602C108.646 90.953 108.936 91.8719 109.177 92.4593C111.014 89.6463 112.888 86.8559 114.597 83.9638C115.248 82.8378 115.113 81.4407 115.771 80.3073ZM177.788 83.4931C177.74 84.8826 178.071 86.291 178.812 87.4735C179.313 86.2157 179.678 84.8751 179.659 83.5119C179.648 83.0073 179.396 82.4274 178.865 82.2843C178.206 82.2278 177.849 82.9433 177.788 83.4931ZM91.6752 87.7747C88.713 91.3447 86.0031 95.4004 85.2202 100.059C85.0922 101.177 84.8852 102.563 85.8224 103.406C88.2614 102.954 89.6615 100.657 91.0316 98.8159C93.1393 95.6753 95.0401 92.3765 96.4816 88.8781C97.0425 87.3982 97.6522 85.8542 97.543 84.2425C97.5769 83.6738 96.9597 83.1956 96.4365 83.542C94.5131 84.5023 93.0904 86.2007 91.6752 87.7747ZM167.871 97.1063C167.746 98.364 167.566 99.7837 168.266 100.913C168.827 101.731 169.971 101.429 170.679 100.985C172.369 99.9381 173.558 98.2737 174.623 96.6318C175.895 94.5154 177.115 92.3351 177.845 89.9626C175.933 88.8141 174.397 87.0178 173.818 84.8337C170.615 88.1664 168.552 92.5422 167.871 97.1063ZM115.086 89.6765C113.419 92.3614 111.767 95.0539 109.986 97.6674C110.494 99.3318 111.078 101.09 112.365 102.326C112.858 102.804 113.788 103.162 114.285 102.491C115.011 101.478 115.105 100.172 115.26 98.9741C115.512 95.8786 115.305 92.7681 115.086 89.6765Z" fill="white"/>
</g>
<defs>
<linearGradient id="paint0_linear_8_1131" x1="0.59082" y1="0" x2="81.0153" y2="90.4144" gradientUnits="userSpaceOnUse">
<stop stop-color="#17B9FF"/>
<stop offset="1" stop-color="#1769FF"/>
</linearGradient>
<linearGradient id="paint1_linear_8_1131" x1="47.3757" y1="60.8511" x2="84.3226" y2="128.742" gradientUnits="userSpaceOnUse">
<stop stop-color="#17B9FF"/>
<stop offset="1" stop-color="#1769FF"/>
</linearGradient>
<clipPath id="clip0_8_1131">
<rect width="191.818" height="110" fill="white" transform="translate(0.59082)"/>
</clipPath>
</defs>
</svg>
